<?xml version="1.0" encoding="utf-8"?>
<!-- Generator: Adobe Illustrator 26.0.1, SVG Export Plug-In . SVG Version: 6.00 Build 0)  -->
<svg version="1.1" id="Lager_1" xmlns="http://www.w3.org/2000/svg" xmlns:xlink="http://www.w3.org/1999/xlink" x="0px" y="0px"
	 viewBox="0 0 2086.3 1413.2" style="enable-background:new 0 0 2086.3 1413.2;" xml:space="preserve">
<style type="text/css">
	.st0{stroke:#000000;stroke-miterlimit:10;}
	.st1{font-family:'SofiaPro-Medium';}
	.st2{font-size:50px;}
	.st3{fill:#23C3FF;}
	.st4{fill:#2819FF;}
	.st5{fill:#00BE5F;}
	.st6{font-size:47px;}
	.st7{letter-spacing:-1;}
</style>
<rect x="378.1" y="155.2" class="st0" width="20" height="1100"/>
<rect x="286.1" y="750.2" class="st0" width="80" height="10"/>
<rect x="286.1" y="250.2" class="st0" width="80" height="10"/>
<rect x="286.1" y="1000.2" class="st0" width="80" height="10"/>
<text transform="matrix(1 0 0 1 23.4718 123.5897)" class="st1 st2">Å</text>
<text transform="matrix(1 0 0 1 54.5218 123.5897)" class="st1 st2">t</text>
<text transform="matrix(1 0 0 1 70.5218 123.5897)" class="st1 st2">erb</text>
<text transform="matrix(1 0 0 1 148.6219 123.5897)" class="st1 st2">e</text>
<text transform="matrix(1 0 0 1 176.3219 123.5897)" class="st1 st2">t</text>
<text transform="matrix(1 0 0 1 192.3219 123.5897)" class="st1 st2">alningsperiod</text>
<text transform="matrix(1 0 0 1 1898.0958 1304.6296)" class="st1 st2">Belopp</text>
<rect x="603.6" y="1000.7" class="st3" width="200" height="235"/>
<rect x="1048.6" y="750.7" class="st4" width="200" height="485"/>
<rect x="1473.6" y="250.7" class="st5" width="200" height="985"/>
<rect x="398.1" y="1235.2" class="st0" width="1500" height="20"/>
<text transform="matrix(1 0 0 1 603.7559 1303.5062)" class="st1 st6">10 000 k</text>
<text transform="matrix(1 0 0 1 778.2158 1303.5062)" class="st1 st6 st7">r</text>
<text transform="matrix(1 0 0 1 1048.1058 1303.5763)" class="st1 st6">25 000 k</text>
<text transform="matrix(1 0 0 1 1228.6759 1303.5763)" class="st1 st6 st7">r</text>
<text transform="matrix(1 0 0 1 1473.1259 1304.0663)" class="st1 st6">50 000 k</text>
<text transform="matrix(1 0 0 1 1656.9359 1304.0663)" class="st1 st6 st7">r</text>
<text transform="matrix(1 0 0 1 21.6658 1017.6462)" class="st1 st6">3 </text>
<text transform="matrix(1 0 0 1 57.9058 1017.6462)" class="st1 st6">M</text>
<text transform="matrix(1 0 0 1 101.5158 1017.6462)" class="st1 st6">ånade</text>
<text transform="matrix(1 0 0 1 240.7258 1017.6462)" class="st1 st6 st7">r</text>
<text transform="matrix(1 0 0 1 21.7358 767.3663)" class="st1 st6">6 </text>
<text transform="matrix(1 0 0 1 61.0258 767.3663)" class="st1 st6">M</text>
<text transform="matrix(1 0 0 1 104.6458 767.3663)" class="st1 st6">ånade</text>
<text transform="matrix(1 0 0 1 243.8558 767.3663)" class="st1 st6 st7">r</text>
<text transform="matrix(1 0 0 1 22.1558 262.5763)" class="st1 st6">12 </text>
<text transform="matrix(1 0 0 1 75.2658 262.5763)" class="st1 st6">M</text>
<text transform="matrix(1 0 0 1 118.8758 262.5763)" class="st1 st6">ånade</text>
<text transform="matrix(1 0 0 1 258.0958 262.5763)" class="st1 st6 st7">r</text>
</svg>
