<svg id="Lager_1" data-name="Lager 1" xmlns="http://www.w3.org/2000/svg" viewBox="0 0 2037.93 1241.29"><defs><style>.cls-1{stroke:#000;stroke-miterlimit:10;}.cls-11,.cls-13,.cls-2,.cls-3,.cls-4,.cls-8,.cls-9{isolation:isolate;}.cls-2,.cls-3,.cls-4{font-size:50px;}.cls-11,.cls-13,.cls-2,.cls-3,.cls-4,.cls-9{font-family:SofiaPro-Medium, Sofia Pro;font-weight:500;}.cls-2{letter-spacing:-0.04em;}.cls-3{letter-spacing:-0.01em;}.cls-5{fill:#23c3ff;}.cls-6{fill:#2819ff;}.cls-7{fill:#00be5f;}.cls-11,.cls-13,.cls-9{font-size:47px;}.cls-10{letter-spacing:-0.02em;}.cls-11{letter-spacing:-0.06em;}.cls-12{letter-spacing:-0.02em;}.cls-13{letter-spacing:-0.01em;}</style></defs><rect class="cls-1" x="356.43" y="78.38" width="20" height="1100"/><rect class="cls-1" x="264.43" y="673.38" width="80" height="10"/><rect class="cls-1" x="264.43" y="173.38" width="80" height="10"/><rect class="cls-1" x="264.43" y="923.38" width="80" height="10"/><text class="cls-2" transform="translate(1.81 46.8)">Å</text><text class="cls-3" transform="translate(32.86 46.8)">t</text><text class="cls-4" transform="translate(48.86 46.8)">erb</text><text class="cls-3" transform="translate(126.96 46.8)">e</text><text class="cls-3" transform="translate(154.66 46.8)">t</text><text class="cls-4" transform="translate(170.66 46.8)">alningsperiod</text><text class="cls-4" transform="translate(1876.43 1227.84)">Belopp</text><rect class="cls-5" x="581.93" y="923.88" width="200" height="235"/><rect class="cls-6" x="1026.93" y="673.88" width="200" height="485"/><rect class="cls-7" x="1451.93" y="173.88" width="200" height="985"/><rect class="cls-1" x="376.43" y="1158.38" width="1500" height="20"/><g class="cls-8"><text class="cls-9" transform="translate(582.09 1226.72)">10 000 <tspan class="cls-10" x="151.24" y="0">k</tspan></text><text class="cls-11" transform="translate(756.55 1226.72)">r</text></g><g class="cls-8"><text class="cls-9" transform="translate(1026.44 1226.79)">25 000 <tspan class="cls-12" x="157.35" y="0">k</tspan></text><text class="cls-11" transform="translate(1207.01 1226.79)">r</text></g><g class="cls-8"><text class="cls-9" transform="translate(1451.46 1227.28)">50 000 <tspan class="cls-12" x="160.6" y="0">k</tspan></text><text class="cls-11" transform="translate(1635.27 1227.28)">r</text></g><g class="cls-8"><text class="cls-9" transform="translate(0 940.86)">3 </text><text class="cls-13" transform="translate(36.24 940.86)">M</text><text class="cls-9" transform="translate(79.85 940.86)">ånade</text><text class="cls-11" transform="translate(219.06 940.86)">r</text></g><g class="cls-8"><text class="cls-9" transform="translate(0.07 690.58)">6 </text><text class="cls-13" transform="translate(39.36 690.58)">M</text><text class="cls-9" transform="translate(82.98 690.58)">ånade</text><text class="cls-11" transform="translate(222.19 690.58)">r</text></g><g class="cls-8"><text class="cls-9" transform="translate(0.49 185.79)">12 </text><text class="cls-13" transform="translate(53.6 185.79)">M</text><text class="cls-9" transform="translate(97.21 185.79)">ånade</text><text class="cls-11" transform="translate(236.43 185.79)">r</text></g></svg>